<svg width="39" height="39" viewBox="0 0 39 39" fill="none" xmlns="http://www.w3.org/2000/svg">
<g clip-path="url(#clip0_2_990)">
<path d="M7.23938 3.29063C7.46822 3.02307 7.75232 2.80827 8.07211 2.661C8.3919 2.51372 8.7398 2.43748 9.09188 2.4375H29.9081C30.2602 2.43748 30.6081 2.51372 30.9279 2.661C31.2477 2.80827 31.5318 3.02307 31.7606 3.29063L38.1201 10.7104C38.6879 11.373 39 12.2168 39 13.0894V13.7109C39.0001 14.9174 38.6233 16.0938 37.9222 17.0757C37.2211 18.0576 36.2307 18.7959 35.0895 19.1874C33.9482 19.5789 32.7132 19.604 31.557 19.2593C30.4008 18.9146 29.3812 18.2173 28.6406 17.2648C28.0998 17.9614 27.4068 18.5249 26.6147 18.9124C25.8225 19.2998 24.9522 19.5008 24.0703 19.5C23.1884 19.501 22.3181 19.3001 21.5258 18.9126C20.7336 18.5252 20.0407 17.9615 19.5 17.2648C18.9593 17.9615 18.2664 18.5252 17.4742 18.9126C16.6819 19.3001 15.8116 19.501 14.9297 19.5C14.0478 19.501 13.1774 19.3001 12.3852 18.9126C11.593 18.5252 10.9 17.9615 10.3594 17.2648C9.61884 18.2173 8.59921 18.9146 7.443 19.2593C6.28678 19.604 5.05176 19.5789 3.91054 19.1874C2.76932 18.7959 1.77894 18.0576 1.07782 17.0757C0.376696 16.0938 -0.000133084 14.9174 3.52573e-08 13.7109V13.0894C3.07309e-05 12.2168 0.312138 11.373 0.879938 10.7104L7.24181 3.28819L7.23938 3.29063ZM11.5781 13.7109C11.5781 14.5998 11.9312 15.4523 12.5598 16.0809C13.1883 16.7094 14.0408 17.0625 14.9297 17.0625C15.8186 17.0625 16.6711 16.7094 17.2996 16.0809C17.9281 15.4523 18.2812 14.5998 18.2812 13.7109C18.2812 13.3877 18.4097 13.0777 18.6382 12.8492C18.8668 12.6206 19.1768 12.4922 19.5 12.4922C19.8232 12.4922 20.1332 12.6206 20.3618 12.8492C20.5903 13.0777 20.7188 13.3877 20.7188 13.7109C20.7188 14.5998 21.0719 15.4523 21.7004 16.0809C22.3289 16.7094 23.1814 17.0625 24.0703 17.0625C24.9592 17.0625 25.8117 16.7094 26.4402 16.0809C27.0688 15.4523 27.4219 14.5998 27.4219 13.7109C27.4219 13.3877 27.5503 13.0777 27.7788 12.8492C28.0074 12.6206 28.3174 12.4922 28.6406 12.4922C28.9639 12.4922 29.2739 12.6206 29.5024 12.8492C29.731 13.0777 29.8594 13.3877 29.8594 13.7109C29.8594 14.5998 30.2125 15.4523 30.841 16.0809C31.4696 16.7094 32.322 17.0625 33.2109 17.0625C34.0998 17.0625 34.9523 16.7094 35.5808 16.0809C36.2094 15.4523 36.5625 14.5998 36.5625 13.7109V13.0894C36.5625 12.7989 36.4588 12.518 36.27 12.2972L29.9081 4.875H9.09188L2.73 12.2972C2.54121 12.518 2.43748 12.7989 2.4375 13.0894V13.7109C2.4375 14.5998 2.79061 15.4523 3.41915 16.0809C4.04769 16.7094 4.90017 17.0625 5.78906 17.0625C6.67795 17.0625 7.53044 16.7094 8.15898 16.0809C8.78752 15.4523 9.14062 14.5998 9.14062 13.7109C9.14062 13.3877 9.26903 13.0777 9.49759 12.8492C9.72615 12.6206 10.0361 12.4922 10.3594 12.4922C10.6826 12.4922 10.9926 12.6206 11.2212 12.8492C11.4497 13.0777 11.5781 13.3877 11.5781 13.7109ZM3.65625 20.7188C3.97948 20.7188 4.28948 20.8472 4.51804 21.0757C4.7466 21.3043 4.875 21.6143 4.875 21.9375V36.5625H34.125V21.9375C34.125 21.6143 34.2534 21.3043 34.482 21.0757C34.7105 20.8472 35.0205 20.7188 35.3438 20.7188C35.667 20.7188 35.977 20.8472 36.2055 21.0757C36.4341 21.3043 36.5625 21.6143 36.5625 21.9375V36.5625H37.7812C38.1045 36.5625 38.4145 36.6909 38.643 36.9195C38.8716 37.148 39 37.458 39 37.7812C39 38.1045 38.8716 38.4145 38.643 38.643C38.4145 38.8716 38.1045 39 37.7812 39H1.21875C0.895517 39 0.585524 38.8716 0.356964 38.643C0.128404 38.4145 3.52573e-08 38.1045 3.52573e-08 37.7812C3.52573e-08 37.458 0.128404 37.148 0.356964 36.9195C0.585524 36.6909 0.895517 36.5625 1.21875 36.5625H2.4375V21.9375C2.4375 21.6143 2.5659 21.3043 2.79446 21.0757C3.02302 20.8472 3.33302 20.7188 3.65625 20.7188ZM8.53125 21.9375C8.85448 21.9375 9.16448 22.0659 9.39304 22.2945C9.6216 22.523 9.75 22.833 9.75 23.1562V31.6875H29.25V23.1562C29.25 22.833 29.3784 22.523 29.607 22.2945C29.8355 22.0659 30.1455 21.9375 30.4688 21.9375C30.792 21.9375 31.102 22.0659 31.3305 22.2945C31.5591 22.523 31.6875 22.833 31.6875 23.1562V31.6875C31.6875 32.334 31.4307 32.954 30.9736 33.4111C30.5165 33.8682 29.8965 34.125 29.25 34.125H9.75C9.10353 34.125 8.48355 33.8682 8.02643 33.4111C7.56931 32.954 7.3125 32.334 7.3125 31.6875V23.1562C7.3125 22.833 7.4409 22.523 7.66946 22.2945C7.89802 22.0659 8.20802 21.9375 8.53125 21.9375Z" fill="#F77F00"/>
</g>
<defs>
<clipPath id="clip0_2_990">
<rect width="39" height="39" fill="white"/>
</clipPath>
</defs>
</svg>
