<svg width="28" height="28" viewBox="0 0 28 28" fill="none" xmlns="http://www.w3.org/2000/svg">
<path d="M23.333 20.9998H20.9997V10.7915L13.9997 15.1665L6.99967 10.7915V20.9998H4.66634V6.99984H6.06634L13.9997 11.9582L21.933 6.99984H23.333V20.9998ZM23.333 4.6665H4.66634C3.37134 4.6665 2.33301 5.70484 2.33301 6.99984V20.9998C2.33301 21.6187 2.57884 22.2122 3.01643 22.6497C3.45401 23.0873 4.0475 23.3332 4.66634 23.3332H23.333C23.9518 23.3332 24.5453 23.0873 24.9829 22.6497C25.4205 22.2122 25.6663 21.6187 25.6663 20.9998V6.99984C25.6663 6.381 25.4205 5.78751 24.9829 5.34992C24.5453 4.91234 23.9518 4.6665 23.333 4.6665Z" fill="#646464"/>
</svg>
