<svg id="Layer_1" data-name="Layer 1" xmlns="http://www.w3.org/2000/svg" viewBox="0 0 12.98 4.5"><defs><style>.cls-1{fill:#feb802;}.cls-1,.cls-3{fill-rule:evenodd;}.cls-2{fill:#11124a;}.cls-3,.cls-5{fill:#f77f00;}.cls-4{fill:#111344;}</style></defs><path class="cls-1" d="M1.64,6.54l1.87-.68a.18.18,0,0,1,.1,0,.74.74,0,0,0,0,.25v.08H3.35A.32.32,0,0,0,3,6.47l-.33,2.3A.3.3,0,0,0,3,9.11h.77l-1.46.53a.19.19,0,0,1-.25-.12L1.52,6.79a.21.21,0,0,1,.12-.25Z" transform="translate(-1.51 -5.42)"/><path class="cls-2" d="M2.87,5.81a.37.37,0,0,0-.21-.23.37.37,0,0,0-.31,0,.47.47,0,0,0-.23.21.42.42,0,0,0,0,.31l.15.42-.11,0L2,6.12a.55.55,0,0,1,0-.4.53.53,0,0,1,.3-.27.5.5,0,0,1,.4,0,.53.53,0,0,1,.27.3l.16.42L3,6.23l-.15-.42Z" transform="translate(-1.51 -5.42)"/><path class="cls-3" d="M3.35,6.33H5a.17.17,0,0,1,.16.17l.11.72-.18,0a1,1,0,0,0-.77.34,1.17,1.17,0,0,0-.3.8A1.14,1.14,0,0,0,4.21,9H3a.16.16,0,0,1-.17-.16l.34-2.3a.17.17,0,0,1,.16-.17Z" transform="translate(-1.51 -5.42)"/><path class="cls-2" d="M4.59,6.1a.41.41,0,0,0-.4-.4.37.37,0,0,0-.29.12.4.4,0,0,0-.12.28v.45H3.66V6.1a.53.53,0,0,1,.53-.52.51.51,0,0,1,.52.52v.45H4.59V6.1Z" transform="translate(-1.51 -5.42)"/><path class="cls-4" d="M5.62,7.75V7H6V9.11h-.4V8.92a.6.6,0,0,1-.5.23.69.69,0,0,1-.53-.24.79.79,0,0,1-.22-.58.8.8,0,0,1,.22-.57.69.69,0,0,1,.53-.24.6.6,0,0,1,.5.23Zm-.73.9a.41.41,0,0,0,.31.12.41.41,0,0,0,.3-.12.44.44,0,0,0,.12-.32A.43.43,0,0,0,5.5,8a.41.41,0,0,0-.3-.12A.41.41,0,0,0,4.89,8a.43.43,0,0,0-.12.31.44.44,0,0,0,.12.32Zm2.6.26a.81.81,0,0,1-1.15,0A.81.81,0,1,1,7.49,7.76a.78.78,0,0,1,.24.57.77.77,0,0,1-.24.58Zm-.87-.27a.41.41,0,0,0,.3.12.4.4,0,0,0,.29-.12.41.41,0,0,0,.12-.31A.41.41,0,0,0,7.21,8a.4.4,0,0,0-.29-.12.41.41,0,0,0-.42.42.41.41,0,0,0,.12.31ZM8.67,7.52a.53.53,0,0,1,.41.17.62.62,0,0,1,.17.47v.95h-.4v-.9A.32.32,0,0,0,8.77,8a.31.31,0,0,0-.22-.08A.3.3,0,0,0,8.3,8a.39.39,0,0,0-.09.28v.84h-.4V7.56h.4v.18a.5.5,0,0,1,.46-.22Zm1.89.23V7.56H11V9.11h-.4V8.92a.61.61,0,0,1-.5.23.69.69,0,0,1-.53-.24.79.79,0,0,1-.22-.58.8.8,0,0,1,.22-.57.69.69,0,0,1,.53-.24.61.61,0,0,1,.5.23Zm-.73.9a.41.41,0,0,0,.3.12.43.43,0,0,0,.31-.12.44.44,0,0,0,.12-.32.41.41,0,0,0-.43-.43.41.41,0,0,0-.3.12.43.43,0,0,0-.12.31.44.44,0,0,0,.12.32Z" transform="translate(-1.51 -5.42)"/><path class="cls-5" d="M11.61,8.88a.26.26,0,0,1-.08.19.25.25,0,0,1-.18.08.27.27,0,0,1-.19-.08.25.25,0,0,1-.07-.19.24.24,0,0,1,.07-.18.27.27,0,0,1,.19-.08.27.27,0,0,1,.26.26Zm1.15-.48V7.56h.4V9.11h-.4V8.93a.51.51,0,0,1-.46.22A.57.57,0,0,1,11.88,9a.65.65,0,0,1-.16-.47v-1h.4v.9a.32.32,0,0,0,.08.24.31.31,0,0,0,.22.08.3.3,0,0,0,.25-.1.39.39,0,0,0,.09-.28Zm1.7-.57-.66.9h.69v.38H13.27V8.84l.65-.9H13.3V7.56h1.16v.27Z" transform="translate(-1.51 -5.42)"/><path class="cls-4" d="M9.57,9.85a.22.22,0,0,1-.17.07.24.24,0,0,1-.18-.07.21.21,0,0,1-.07-.17.24.24,0,0,1,.07-.18.29.29,0,0,1,.18-.07.26.26,0,0,1,.17.07.24.24,0,0,1,.07.18.21.21,0,0,1-.07.17Zm-.32-.17a.12.12,0,0,0,0,.1.16.16,0,0,0,.11.05.14.14,0,0,0,.1-.05.12.12,0,0,0,0-.1.15.15,0,0,0,0-.11.18.18,0,0,0-.1,0,.21.21,0,0,0-.11,0,.15.15,0,0,0,0,.11Zm.69-.25a.16.16,0,0,1,.13.06.2.2,0,0,1,0,.14v.28H10V9.64s0-.07,0-.08a.12.12,0,0,0-.16,0,.12.12,0,0,0,0,.1v.25h-.1V9.45h.1v.06a.16.16,0,0,1,.15-.08Zm.34.48h-.1V9.23h.1v.68Zm.18-.55-.05,0,0,0a.06.06,0,0,1,0,0s0,0,0,0,0,0,0,0a.06.06,0,0,1,.05,0,.05.05,0,0,1,0,0s0,0,0,0Zm0,.55h-.1V9.45h.1v.46Zm.32-.48a.15.15,0,0,1,.13.06.2.2,0,0,1,.05.14v.28h-.1V9.64s0-.07,0-.08a.09.09,0,0,0-.07,0,.12.12,0,0,0-.09,0,.15.15,0,0,0,0,.1v.25h-.1V9.45h.1v.06a.16.16,0,0,1,.14-.08Zm.7.29h-.37a.09.09,0,0,0,.05.08.15.15,0,0,0,.1,0,.14.14,0,0,0,.12-.06l.08.05a.22.22,0,0,1-.2.1.25.25,0,0,1-.19-.07.25.25,0,0,1,0-.35.29.29,0,0,1,.18-.07.23.23,0,0,1,.17.08.24.24,0,0,1,.06.17v0Zm-.37-.08h.27a.13.13,0,0,0-.05-.09.11.11,0,0,0-.08,0,.18.18,0,0,0-.1,0,.1.1,0,0,0,0,.08Zm1.16-.21a.19.19,0,0,1,.13.05.22.22,0,0,1,0,.14v.29h-.1V9.63a.11.11,0,0,0,0-.08l-.06,0a.1.1,0,0,0-.08,0s0,0,0,.09v.26h-.11V9.63a.11.11,0,0,0,0-.08l-.06,0a.11.11,0,0,0-.08,0,.12.12,0,0,0,0,.09v.26h-.1V9.45h.1V9.5A.17.17,0,0,1,12,9.43a.14.14,0,0,1,.13.08.16.16,0,0,1,.14-.08Zm.61.08V9.45H13v.46h-.1V9.84a.16.16,0,0,1-.16.08.2.2,0,0,1-.16-.07.21.21,0,0,1-.07-.17.24.24,0,0,1,.07-.18.24.24,0,0,1,.16-.07.18.18,0,0,1,.16.08Zm-.25.28a.18.18,0,0,0,.11,0,.18.18,0,0,0,.1,0,.17.17,0,0,0,0-.22.13.13,0,0,0-.1,0,.14.14,0,0,0-.11,0,.17.17,0,0,0,0,.22Zm.53-.34v.07a.16.16,0,0,1,.15-.08v.11a.14.14,0,0,0-.11,0,.16.16,0,0,0,0,.11v.23h-.1V9.45Zm.38.22.21.24h-.12l-.19-.21v.21h-.1V9.26h.1v.39l.18-.2h.12l-.2.22Zm.65.05h-.37a.11.11,0,0,0,0,.08.17.17,0,0,0,.1,0,.14.14,0,0,0,.12-.06l.08.05a.21.21,0,0,1-.2.1.25.25,0,0,1-.19-.07.24.24,0,0,1-.07-.17A.24.24,0,0,1,14,9.43a.23.23,0,0,1,.17.08.24.24,0,0,1,.06.17v0Zm-.37-.08h.27a.13.13,0,0,0,0-.09l-.09,0a.13.13,0,0,0-.09,0,.11.11,0,0,0,0,.08Zm.67-.19v.09h-.12v.23a.05.05,0,0,0,0,0h.1v.09a.28.28,0,0,1-.17,0,.14.14,0,0,1-.05-.12V9.54h-.08V9.45h.08V9.34l.1,0v.13Z" transform="translate(-1.51 -5.42)"/></svg>